<?xml version="1.0" standalone="no"?>
<!DOCTYPE svg PUBLIC "-//W3C//DTD SVG 20010904//EN"
 "http://www.w3.org/TR/2001/REC-SVG-20010904/DTD/svg10.dtd">
<svg version="1.0" xmlns="http://www.w3.org/2000/svg"
 width="300.000000pt" height="300.000000pt" viewBox="0 0 300.000000 300.000000"
 preserveAspectRatio="xMidYMid meet">
<metadata>
Created by potrace 1.11, written by Peter Selinger 2001-2013
</metadata>
<g transform="translate(0.000000,300.000000) scale(0.100000,-0.100000)"
fill="#000000" stroke="none">
<path d="M1301 2987 c-10 -13 -19 -45 -20 -78 -1 -11 -11 -16 -31 -16 -21 0
-36 -7 -48 -24 -17 -24 -17 -24 -22 36 -4 44 -9 60 -20 60 -10 0 -15 -11 -16
-35 -3 -65 -42 -134 -69 -123 -18 6 -39 68 -39 118 -1 33 -4 40 -21 40 -19 0
-20 -6 -17 -99 1 -55 -1 -97 -4 -93 -10 10 -34 -13 -34 -33 0 -19 -37 -57 -46
-47 -4 4 -1 20 6 36 6 16 9 35 5 41 -10 17 -44 -17 -65 -66 -10 -23 -22 -44
-28 -47 -19 -12 -90 34 -101 65 -9 26 -13 29 -26 18 -16 -13 -12 -50 11 -85
16 -26 33 -120 24 -135 -9 -15 -25 6 -34 43 -5 20 -12 27 -24 25 -27 -5 -27
-55 2 -112 20 -40 24 -58 18 -81 -8 -29 -11 -30 -64 -30 -35 0 -64 -7 -81 -18
-30 -19 -33 -27 -16 -44 9 -9 18 -7 38 8 34 25 67 16 80 -23 13 -37 14 -58 2
-39 -15 23 -34 1 -27 -31 5 -26 3 -29 -12 -23 -70 29 -72 -1 -3 -44 48 -29 79
-66 67 -79 -4 -3 -12 2 -19 12 -9 12 -32 19 -73 23 -56 5 -61 4 -92 -25 -17
-16 -32 -37 -32 -46 0 -20 36 -21 43 -2 3 8 17 22 30 31 34 22 66 7 106 -46
35 -48 39 -78 15 -114 -13 -20 -20 -23 -34 -15 -25 14 -60 13 -60 -2 0 -6 23
-39 52 -72 28 -34 48 -58 43 -53 -5 4 -16 0 -26 -9 -16 -14 -21 -13 -65 10
-34 18 -51 22 -60 15 -7 -6 -11 -16 -8 -23 7 -19 74 -49 114 -51 19 -1 49 -9
67 -18 18 -10 40 -17 49 -17 15 0 14 -4 -6 -25 l-23 -24 -17 21 c-9 12 -22 18
-28 14 -21 -13 -13 -45 19 -76 l32 -30 -29 -1 c-16 -1 -41 0 -56 1 -19 1 -28
-3 -28 -14 0 -21 29 -34 68 -31 17 1 32 -1 32 -6 0 -5 -4 -9 -8 -9 -12 0 -48
-68 -40 -76 11 -11 47 6 53 26 10 31 46 37 65 10 8 -13 32 -40 54 -60 l38 -37
-22 -16 c-33 -23 -23 -58 25 -82 96 -49 104 -63 59 -109 -35 -36 -40 -56 -15
-64 7 -2 15 5 18 17 4 16 12 21 32 18 27 -4 91 28 91 45 0 8 73 -42 90 -62 3
-3 26 -16 53 -28 28 -13 47 -29 48 -40 4 -62 3 -145 -2 -153 -3 -5 -39 -12
-80 -14 -41 -3 -81 -7 -89 -9 -23 -4 -94 -20 -100 -21 -7 -2 -39 -15 -86 -35
-111 -47 -245 -159 -316 -263 -89 -131 -126 -244 -136 -420 l-7 -117 1072 0
1073 0 1 48 c5 250 -75 451 -245 609 -141 132 -345 215 -517 210 -27 -1 -49 3
-50 8 0 6 -1 45 -2 88 l-2 78 54 27 c29 15 82 53 117 85 l64 59 0 -34 c0 -18
6 -43 14 -54 8 -11 16 -30 18 -43 1 -14 8 -26 15 -28 21 -7 26 42 8 77 -17 33
-27 70 -19 70 3 0 19 -6 37 -13 38 -15 67 -11 67 9 0 8 -18 19 -45 26 l-45 12
33 31 c17 17 37 38 42 48 10 17 29 22 69 15 26 -4 32 19 7 27 -12 3 -21 11
-21 16 0 6 4 8 9 5 14 -9 36 23 24 35 -10 10 -5 68 6 70 49 6 58 4 83 -23 15
-16 31 -27 36 -24 15 9 1 55 -20 71 -16 11 -19 20 -14 47 3 18 7 39 8 46 2 17
17 15 24 -3 4 -8 12 -15 20 -15 21 0 17 44 -7 74 -28 36 -23 60 11 43 16 -8
27 -25 32 -52 10 -46 30 -63 40 -35 11 29 -2 86 -26 112 -25 27 -48 68 -38 69
4 1 16 3 27 4 11 1 30 5 43 9 29 10 25 40 -5 44 -23 3 -73 45 -73 60 0 5 11 7
24 5 35 -7 55 31 25 47 -14 8 -17 15 -10 24 13 16 -1 37 -27 39 -31 2 -27 12
17 48 22 17 42 38 45 46 11 26 -5 35 -31 17 -25 -16 -26 -16 -18 2 13 34 24
88 18 97 -11 19 -37 0 -47 -35 -7 -25 -15 -35 -23 -30 -9 5 -6 22 11 63 12 30
20 61 18 67 -5 15 -32 16 -32 0 0 -6 -3 -8 -6 -5 -4 3 2 23 12 44 23 48 25
128 4 128 -11 0 -17 -15 -21 -51 -8 -62 -14 -74 -40 -74 -24 0 -24 10 2 59 23
45 18 63 -14 59 -19 -3 -22 1 -19 32 2 19 5 45 7 58 5 31 -4 52 -22 52 -13 0
-14 10 -8 55 8 66 0 83 -26 59 -11 -10 -19 -30 -19 -50 0 -37 -23 -66 -45 -58
-17 7 -17 5 -6 61 6 30 5 48 -4 60 -11 15 -13 15 -23 -4 -6 -11 -10 -22 -9
-24 1 -2 -4 2 -10 10 -11 12 -16 12 -33 -4 l-21 -19 3 67 c2 52 -1 70 -12 77
-17 11 -37 -10 -47 -48 -9 -36 -27 -20 -37 32 -7 38 -5 50 8 65 20 22 20 27 1
35 -33 12 -45 -4 -45 -63 -1 -47 -2 -53 -12 -36 -15 26 -28 34 -44 28 -10 -4
-13 4 -13 28 3 70 2 73 -23 57 -13 -9 -23 -19 -23 -24 0 -19 -28 -74 -37 -74
-12 0 -5 45 16 94 9 21 16 42 16 47 0 21 -36 6 -75 -30 -24 -22 -56 -46 -72
-55 -29 -15 -30 -14 -67 25 -34 38 -56 44 -56 15 0 -8 -7 -19 -15 -26 -13 -11
-22 -10 -50 3 -31 15 -34 20 -29 46 3 16 1 31 -4 35 -15 9 -42 -22 -49 -55 -3
-16 -12 -34 -19 -40 -21 -17 -19 49 2 72 17 19 12 39 -10 39 -8 0 -19 -6 -25
-13z m550 -944 c13 -16 12 -17 -3 -4 -10 7 -18 15 -18 17 0 8 8 3 21 -13z
m-681 -18 c14 -19 14 -19 -2 -6 -10 7 -18 18 -18 24 0 6 1 8 3 6 1 -2 9 -13
17 -24z m760 1 c0 -2 -7 -7 -16 -10 -8 -3 -12 -2 -9 4 6 10 25 14 25 6z m-659
-23 c13 -16 12 -17 -3 -4 -10 7 -18 15 -18 17 0 8 8 3 21 -13z m552 2 c-3 -9
-8 -14 -10 -11 -3 3 -2 9 2 15 9 16 15 13 8 -4z m-88 -5 c3 -6 -1 -7 -9 -4
-18 7 -21 14 -7 14 6 0 13 -4 16 -10z m199 2 c3 -5 -1 -9 -9 -9 -8 0 -12 4 -9
9 3 4 7 8 9 8 2 0 6 -4 9 -8z m-844 -24 c0 -4 -4 -8 -9 -8 -6 0 -12 4 -15 8
-3 5 1 9 9 9 8 0 15 -4 15 -9z m174 -136 c2 -4 -5 -9 -17 -9 -17 -2 -19 0 -7
7 18 12 18 12 24 2z m542 -28 c1 -9 0 -13 -4 -10 -3 4 -7 14 -8 22 -1 9 0 13
4 10 3 -4 7 -14 8 -22z m-72 8 c2 -4 -4 -8 -14 -8 -10 0 -16 4 -14 8 3 4 9 8
14 8 5 0 11 -4 14 -8z m-551 -17 c-3 -9 -8 -14 -10 -11 -3 3 -2 9 2 15 9 16
15 13 8 -4z m40 -40 c-3 -9 -8 -14 -10 -11 -3 3 -2 9 2 15 9 16 15 13 8 -4z"/>
</g>
</svg>
